<svg xmlns="http://www.w3.org/2000/svg" viewBox="0 0 1440 1173.91"><defs><style>.cls-1{fill:none;}.cls-2{fill:#069ecc;}</style></defs><g id="Layer_2" data-name="Layer 2"><g id="Layer_1-2" data-name="Layer 1"><rect class="cls-1" width="1440" height="1173.91"/><path class="cls-2" d="M919.11,992.2C498.55,1192.38,151.45,1273.53,48.2,726.53c-15.11-78.19-21.08-158-6.87-236.77C54.7,398.08,78,306.75,120.4,224,232.3,3.39,415.36,2.73,631.51,66.75a511.62,511.62,0,0,0-87.68,42.17C348.2,64,219.39,151,153.44,334.83c-55.73,153.41-63.15,302.23-15,458.66,103.82,361,362.82,316,659.44,192.33C834.22,1011.91,861.7,1012.93,919.11,992.2Z"/><path class="cls-2" d="M1167.85,754.38l.29-.23v-.1Z"/><path class="cls-2" d="M1406.13,585.39a507.29,507.29,0,0,0-47.86-67.06c-24.09-28.9-50.51-55.78-78.16-81.28-61.31-56.55-136.79-113.27-219.9-165.69,26.1-52.15,31.45-58.23,62.76-95.88,15.58-18.74,84.57-70.68,84.57-70.68l-54.36-19.94q-119-39.66-266-39.67Q764.09,45.19,664,82a513.25,513.25,0,0,0-82.34,38.74q-14.67,8.57-28.71,18.11Q415.05,232.46,344.84,394.09T274.6,707.87q0,127.47,53.66,203.88t142.08,76.41q68.94,0,129.74-46.17t139.5-141.78q4.54,90.4,44.87,139.17c10,12.14,21.15,22.46,34.1,29.62,39.53,21.85,72,14.94,156.27-21.25,65.89-28.28,159.49-93.82,193.12-118.72a1354.6,1354.6,0,0,0,112.17-92.15,829.89,829.89,0,0,0,63.13-63.81c23.38-26.25,45-54.19,62.89-84.51a2.36,2.36,0,0,0,0-3.17ZM893.7,241.53Q774.53,433.2,743.48,711.12,644,851,567.25,850.94q-44.25,0-72.52-45.85T466.44,685.76q0-109.89,50.4-259.48T654.38,186a360.17,360.17,0,0,1,35.86-32.77A278.26,278.26,0,0,1,754,114.77a242.7,242.7,0,0,1,96.09-19.5q68.93,0,128.77,32.52a796.31,796.31,0,0,0-53.28,66.11Q908.94,217,893.7,241.53Zm427.42,346.83c-15.87,26.61-35.07,51.11-55.79,74.15a739.43,739.43,0,0,1-56,56q-19.55,17.85-41.19,35.66l-.29.23c-45.42,37.37-184.3,132.82-221.14,81C933,816,925.57,789.39,925.57,754.69q0-106.63,65.35-310.2,20.85-65,44.93-120.69c65.21,42.1,124.45,86.94,173.48,131.66,24.5,22.36,48,45.94,69.33,71.29a449.3,449.3,0,0,1,42.46,58.83,2.15,2.15,0,0,1,0,2.78Z"/></g></g></svg>